<svg version="1.2" xmlns="http://www.w3.org/2000/svg" viewBox="0 0 375 812" width="375" height="812">
	<title>background-svg-svg</title>
	<defs>
		<clipPath clipPathUnits="userSpaceOnUse" id="cp1">
			<path d="m0 0h375v812h-375z"/>
		</clipPath>
		<radialGradient id="g1" cx="278" cy="99" r="300" gradientUnits="userSpaceOnUse">
			<stop offset="0" stop-color="#00caef"/>
			<stop offset="1" stop-color="#121214" stop-opacity="0"/>
		</radialGradient>
		<radialGradient id="g2" cx="98" cy="99" r="300" gradientUnits="userSpaceOnUse">
			<stop offset="0" stop-color="#0017ff"/>
			<stop offset="1" stop-color="#121214" stop-opacity="0"/>
		</radialGradient>
		<clipPath clipPathUnits="userSpaceOnUse" id="cp2">
			<path d="m0 0h375v812h-375z"/>
		</clipPath>
		<linearGradient id="g3" x1="-67.9" y1="65.9" x2="436.1" y2="239.4" gradientUnits="userSpaceOnUse">
			<stop offset="0" stop-color="#0047ff"/>
			<stop offset="1" stop-color="#37383c"/>
			<stop offset="1" stop-color="#383838"/>
		</linearGradient>
		<linearGradient id="g4" x1="95.1" y1="217.6" x2="2.2" y2="59" gradientUnits="userSpaceOnUse">
			<stop offset="0" stop-color="#3100ff"/>
			<stop offset="1" stop-color="#00e3ff" stop-opacity="0"/>
			<stop offset="1" stop-color="#00f5ff"/>
		</linearGradient>
		<linearGradient id="g5" x1="95.1" y1="110.2" x2="2.2" y2="-48.4" gradientUnits="userSpaceOnUse">
			<stop offset="0" stop-color="#8257e5"/>
			<stop offset="0" stop-color="#1f00ff" stop-opacity="0"/>
			<stop offset="1" stop-color="#00c9fc"/>
		</linearGradient>
		<linearGradient id="g6" x1="95.1" y1="-105.7" x2="281.4" y2="6.7" gradientUnits="userSpaceOnUse">
			<stop offset="0" stop-color="#2500ff" stop-opacity="0"/>
			<stop offset="1" stop-color="#007dff"/>
		</linearGradient>
		<linearGradient id="g7" x1="375" y1="174.8" x2="188.7" y2="62.4" gradientUnits="userSpaceOnUse">
			<stop offset="0" stop-color="#1300ff" stop-opacity="0"/>
			<stop offset="1" stop-color="#00b3ff"/>
		</linearGradient>
		<linearGradient id="g8" x1="281.7" y1="110.2" x2="374.6" y2="-48.4" gradientUnits="userSpaceOnUse">
			<stop offset="0" stop-color="#4c00fc"/>
			<stop offset="1" stop-color="#04fff7" stop-opacity="0"/>
		</linearGradient>
	</defs>
	<style>
		.s0 { fill: #202024 } 
		.s1 { fill: url(#g1) } 
		.s2 { fill: url(#g2) } 
		.s3 { fill: url(#g3) } 
		.s4 { mix-blend-mode: luminosity;fill: url(#g4) } 
		.s5 { mix-blend-mode: luminosity;fill: url(#g5) } 
		.s6 { mix-blend-mode: luminosity;fill: url(#g6) } 
		.s7 { mix-blend-mode: luminosity;fill: url(#g7) } 
		.s8 { mix-blend-mode: luminosity;fill: url(#g8) } 
	</style>
	<g id="Clip-Path: Clip-Path" clip-path="url(#cp1)">
		<g id="Clip-Path">
			<g id="Layer">
				<path id="Layer" class="s0" d="m0 0h375v812h-375z"/>
				<circle id="Layer" class="s1" cx="278" cy="99" r="300"/>
				<circle id="Layer" class="s2" cx="98" cy="99" r="300"/>
				<g id="Clip-Path: Clip-Path" clip-path="url(#cp2)">
					<g id="Clip-Path">
						<g id="Layer">
							<path id="Layer" class="s3" d="m187.5 282.9l-187.5-107.8v-478.8l187.5-107.8l187.5 107.8v478.8z"/>
							<g id="Layer" style="opacity: .4">
								<path id="Layer" class="s4" d="m95.1 7.7l93.3 53.7v107.4l-93.3 53.7l-93.3-53.7v-107.4z"/>
								<path id="Layer" class="s5" d="m95.1-99.7l93.3 53.7v107.4l-93.3 53.7l-93.3-53.7v-107.4z"/>
								<path id="Layer" class="s6" d="m281.7-99.7v107.4l-93.3 53.7l-93.3-53.7v-107.4l93.3-53.7z"/>
								<path id="Layer" class="s7" d="m188.4 168.8v-107.4l93.3-53.7l93.3 53.7v107.4l-93.3 53.7z"/>
								<path id="Layer" class="s8" d="m375-46v107.4l-93.3 53.7l-93.3-53.7v-107.4l93.3-53.7z"/>
							</g>
						</g>
					</g>
				</g>
			</g>
		</g>
	</g>
</svg>